# xmcd
#
# Track frame offsets:
#	150
#	11971
#	40800
#	61498
#	80786
#	93716
#	119824
#	139799
#	174439
#	208697
#	230802
#	249143
#
# Disc length: 3529 seconds
#
# Revision: 0
# Processed by: cddbd v1.5.1PL0 Copyright (c) Steve Scherf et al.
# Submitted via: dBpowerAMP V4.0
#
DISCID=b00dc70c
DTITLE=聖經-舊約 - Disc 53
DYEAR=1900
DGENRE=
TTITLE0=耶利米書第24章
TTITLE1=耶利米書第25章
TTITLE2=耶利米書第26章
TTITLE3=耶利米書第27章
TTITLE4=耶利米書第28章
TTITLE5=耶利米書第29章
TTITLE6=耶利米書第30章
TTITLE7=耶利米書第31章
TTITLE8=耶利米書第32章
TTITLE9=耶利米書第33章
TTITLE10=耶利米書第34章
TTITLE11=耶利米書第35章
EXTD=
EXTT0=
EXTT1=
EXTT2=
EXTT3=
EXTT4=
EXTT5=
EXTT6=
EXTT7=
EXTT8=
EXTT9=
EXTT10=
EXTT11=
PLAYORDER=
